<?xml version="1.0" standalone="no"?>
<!DOCTYPE svg PUBLIC "-//W3C//DTD SVG 20010904//EN"
 "http://www.w3.org/TR/2001/REC-SVG-20010904/DTD/svg10.dtd">
<svg version="1.0" xmlns="http://www.w3.org/2000/svg"
 width="96.000000pt" height="96.000000pt" viewBox="0 0 96.000000 96.000000"
 preserveAspectRatio="xMidYMid meet">

<g transform="translate(0.000000,96.000000) scale(0.100000,-0.100000)"
fill="#000000" stroke="none">
<path d="M120 600 l0 -240 80 0 80 0 0 -120 0 -120 280 0 280 0 0 240 0 240
-80 0 -80 0 0 120 0 120 -280 0 -280 0 0 -240z m480 40 l0 -40 -160 0 -160 0
0 -80 0 -80 -40 0 -40 0 0 120 0 120 200 0 200 0 0 -40z m160 -160 l0 -40
-200 0 -200 0 0 40 0 40 200 0 200 0 0 -40z"/>
</g>
</svg>
